<?xml version="1.0" standalone="no"?>
<!DOCTYPE svg PUBLIC "-//W3C//DTD SVG 20010904//EN"
 "http://www.w3.org/TR/2001/REC-SVG-20010904/DTD/svg10.dtd">
<svg version="1.0" xmlns="http://www.w3.org/2000/svg"
 width="3000.000000pt" height="3000.000000pt" viewBox="0 0 3000.000000 3000.000000"
 preserveAspectRatio="xMidYMid meet">
<metadata>
Created by potrace 1.14, written by Peter Selinger 2001-2017
</metadata>
<g transform="translate(0.000000,3000.000000) scale(0.100000,-0.100000)"
fill="#000000" stroke="none">
<path d="M14569 27496 c-2 -2 -76 -6 -164 -10 -88 -4 -189 -9 -225 -11 -124
-8 -314 -24 -380 -31 -25 -2 -70 -7 -100 -9 -30 -3 -68 -7 -85 -10 -16 -2 -57
-7 -90 -10 -33 -4 -71 -8 -85 -10 -14 -2 -49 -7 -79 -10 -30 -4 -62 -8 -71
-10 -9 -2 -41 -6 -71 -10 -30 -3 -67 -8 -84 -11 -16 -3 -41 -7 -55 -9 -55 -9
-226 -37 -245 -41 -11 -2 -48 -9 -82 -14 -52 -9 -361 -70 -428 -86 -11 -2 -33
-7 -50 -10 -16 -3 -66 -14 -110 -25 -44 -12 -89 -23 -100 -25 -82 -16 -457
-116 -619 -166 -54 -16 -106 -31 -116 -33 -27 -5 -591 -195 -625 -210 -16 -7
-61 -25 -100 -38 -122 -44 -464 -183 -655 -267 -279 -123 -868 -417 -1010
-503 -19 -12 -37 -22 -40 -22 -6 -1 -133 -74 -218 -126 -35 -22 -65 -39 -68
-39 -8 0 -409 -253 -544 -344 -262 -176 -749 -529 -812 -589 -7 -7 -44 -37
-83 -67 -66 -51 -215 -176 -334 -278 -30 -26 -65 -56 -79 -67 -13 -11 -39 -33
-56 -50 -18 -16 -54 -50 -82 -74 -245 -219 -700 -673 -879 -875 -5 -6 -44 -49
-86 -96 -85 -96 -93 -105 -216 -250 -214 -253 -485 -604 -683 -885 -96 -137
-360 -537 -369 -560 -2 -5 -14 -23 -25 -40 -12 -16 -26 -39 -33 -50 -24 -40
-78 -130 -89 -150 -6 -11 -40 -69 -76 -130 -35 -60 -79 -137 -97 -170 -19 -33
-51 -91 -72 -130 -68 -122 -292 -574 -372 -747 -171 -371 -345 -813 -476
-1203 -69 -207 -144 -446 -156 -495 -2 -8 -22 -80 -45 -160 -22 -80 -42 -154
-44 -165 -3 -11 -18 -72 -35 -135 -34 -129 -64 -261 -96 -410 -10 -49 -36
-181 -41 -203 -2 -12 -6 -33 -9 -47 -9 -44 -63 -353 -70 -395 -3 -22 -10 -69
-16 -105 -21 -134 -27 -182 -34 -245 -3 -27 -7 -59 -9 -71 -2 -11 -7 -47 -10
-80 -4 -32 -9 -78 -11 -101 -16 -141 -23 -209 -30 -298 -2 -33 -7 -91 -10
-130 -36 -433 -42 -1430 -11 -1760 2 -22 7 -87 11 -145 3 -58 8 -118 10 -135
2 -16 7 -65 10 -108 4 -43 8 -86 9 -95 2 -9 7 -53 11 -97 4 -44 8 -87 10 -95
1 -8 6 -42 10 -75 10 -85 14 -116 19 -145 2 -14 7 -52 11 -85 7 -58 9 -70 19
-125 3 -14 8 -42 11 -62 3 -21 7 -55 10 -75 3 -21 8 -49 11 -63 10 -56 13 -69
19 -106 3 -22 8 -52 10 -68 3 -15 7 -35 9 -45 3 -9 8 -29 10 -46 6 -32 45
-228 52 -258 10 -43 15 -64 20 -92 4 -23 78 -326 110 -450 3 -11 7 -29 9 -40
3 -11 32 -114 65 -230 34 -115 63 -217 65 -225 2 -8 10 -35 19 -60 8 -25 36
-108 60 -185 25 -77 60 -178 77 -225 17 -47 35 -98 40 -115 5 -16 13 -39 18
-50 6 -11 21 -52 35 -92 25 -71 152 -390 186 -468 10 -22 32 -74 50 -115 120
-279 343 -739 451 -930 20 -36 52 -94 71 -130 49 -91 139 -247 217 -378 14
-24 31 -51 36 -61 35 -60 212 -336 299 -466 260 -391 689 -955 921 -1211 5 -6
35 -40 65 -75 30 -35 75 -86 100 -114 25 -27 50 -54 55 -61 163 -181 500 -522
695 -704 67 -63 135 -126 150 -140 23 -22 69 -63 219 -195 19 -16 39 -34 45
-40 6 -5 52 -44 101 -85 50 -41 92 -77 95 -80 11 -12 339 -270 415 -326 44
-32 82 -62 85 -65 5 -6 164 -120 273 -197 91 -64 433 -292 497 -332 175 -108
225 -139 315 -193 107 -63 131 -77 355 -201 181 -101 540 -283 725 -369 190
-87 219 -100 413 -183 17 -8 47 -20 65 -28 169 -74 550 -216 830 -311 181 -61
552 -175 617 -190 8 -2 83 -21 165 -43 83 -22 164 -43 180 -48 17 -4 35 -8 40
-10 21 -5 278 -64 299 -68 11 -2 41 -9 66 -15 25 -5 61 -13 80 -16 19 -3 53
-10 75 -15 22 -5 56 -12 75 -15 19 -3 42 -8 50 -10 8 -2 31 -6 50 -9 19 -3 45
-8 56 -10 12 -2 37 -7 55 -10 19 -3 59 -10 89 -16 30 -6 74 -13 96 -16 23 -2
50 -6 61 -8 10 -2 46 -8 78 -12 33 -4 62 -8 65 -9 3 -1 34 -5 70 -9 36 -5 74
-10 85 -12 11 -2 47 -7 80 -10 33 -3 67 -7 75 -9 8 -2 47 -7 85 -10 39 -4 81
-8 95 -11 28 -4 125 -13 335 -29 44 -3 105 -8 135 -10 252 -20 1143 -28 1435
-12 216 12 444 28 570 42 22 2 72 7 110 10 39 3 86 8 105 11 19 2 55 7 80 9
25 3 61 7 80 10 19 3 55 7 80 10 25 3 56 8 70 10 14 2 49 7 79 10 52 6 63 8
121 20 14 2 45 7 70 10 47 6 197 31 240 40 14 3 40 8 59 11 18 3 43 8 55 10
22 4 56 11 108 19 17 3 34 8 38 10 4 3 23 6 43 9 20 2 44 7 54 10 10 3 29 7
43 10 117 21 579 135 775 191 50 14 97 28 105 30 244 64 1047 344 1245 435 11
5 85 36 165 70 275 117 819 377 950 454 14 8 90 51 170 94 192 105 237 130
285 160 22 14 49 30 60 36 11 6 53 31 93 56 40 25 81 50 90 55 55 32 178 110
182 116 3 3 19 14 35 23 46 25 73 43 216 141 73 50 155 106 183 125 29 19 67
47 86 61 19 14 71 52 115 84 207 151 467 355 650 509 44 37 91 77 105 88 26
22 144 126 214 188 334 299 746 713 1022 1030 21 25 44 50 50 55 18 16 273
322 334 400 30 39 57 72 61 75 9 8 280 366 339 450 204 285 405 592 569 864
72 120 131 220 131 222 0 2 10 21 23 42 22 35 35 57 128 227 41 75 346 686
372 745 8 19 29 65 46 102 17 37 42 96 57 130 15 35 34 79 42 98 9 19 17 40
18 45 2 6 24 60 49 120 98 233 351 942 371 1039 2 11 12 47 23 80 18 56 96
331 106 373 3 10 20 81 40 157 34 134 79 324 89 376 2 14 9 45 15 70 5 25 12
56 14 70 3 14 16 84 30 155 26 128 60 322 72 400 6 40 22 149 30 195 2 14 6
48 10 75 3 28 7 59 9 70 2 11 7 49 11 85 14 133 25 222 30 260 2 14 7 59 10
100 3 41 8 95 10 120 30 319 40 579 40 1085 0 395 -6 655 -19 805 -3 25 -7 88
-11 140 -3 52 -8 113 -10 135 -2 22 -7 69 -10 105 -3 36 -8 84 -10 108 -3 23
-7 61 -10 85 -2 23 -7 69 -11 101 -3 33 -7 67 -9 76 -2 8 -6 43 -10 75 -10 82
-13 104 -19 150 -10 62 -24 156 -32 200 -4 22 -8 49 -10 60 -12 88 -80 453
-110 590 -3 11 -9 40 -14 65 -19 93 -89 376 -98 400 -5 14 -10 28 -10 33 -2
28 -58 240 -105 392 -12 39 -22 72 -22 75 -10 46 -197 616 -215 655 -5 11 -30
76 -56 145 -61 168 -175 446 -269 660 -81 185 -345 726 -412 845 -43 75 -91
162 -130 234 -51 93 -170 293 -275 461 -60 96 -115 184 -121 195 -7 11 -14 22
-17 25 -3 3 -39 57 -81 120 -64 97 -129 191 -226 330 -170 240 -623 812 -753
951 -8 8 -27 29 -41 46 -241 278 -684 727 -969 983 -52 47 -97 87 -100 90 -3
3 -41 37 -85 75 -44 38 -86 75 -93 82 -7 6 -34 29 -59 50 -26 21 -55 45 -64
53 -9 8 -25 22 -35 30 -10 9 -86 70 -169 136 -231 186 -564 432 -755 559 -25
17 -49 34 -55 38 -61 50 -762 487 -781 487 -3 0 -21 10 -42 23 -20 13 -68 41
-107 62 -38 21 -101 56 -140 77 -87 48 -598 303 -680 340 -33 15 -89 40 -125
56 -371 168 -912 377 -1265 487 -82 26 -157 50 -165 53 -8 3 -18 6 -22 7 -5 2
-9 3 -10 5 -2 1 -10 3 -18 5 -8 1 -71 19 -140 40 -69 20 -132 38 -140 40 -8 1
-40 10 -71 19 -31 9 -65 18 -75 20 -11 2 -44 11 -75 20 -31 9 -65 18 -75 20
-11 3 -77 19 -149 36 -203 49 -664 144 -809 166 -21 3 -46 7 -55 9 -9 1 -41 6
-71 11 -30 4 -57 8 -60 9 -3 1 -32 5 -65 9 -33 5 -69 10 -80 12 -11 3 -40 7
-65 9 -25 3 -58 7 -75 10 -16 3 -52 7 -80 10 -27 3 -61 8 -75 10 -14 2 -54 6
-90 10 -36 4 -76 8 -90 10 -23 4 -58 7 -230 20 -36 3 -85 8 -110 10 -25 3 -92
7 -150 11 -58 3 -127 8 -155 10 -64 6 -1081 15 -1086 10z"/>
</g>
</svg>
